<mxfile host="app.diagrams.net" agent="Mozilla/5.0 (Windows NT 10.0; Win64; x64) AppleWebKit/537.36 (KHTML, like Gecko) Chrome/128.0.0.0 Safari/537.36" version="24.7.10">
  <diagram name="Page-1" id="zdLS6XzUSG3x8lp1yBCd">
    <mxGraphModel dx="989" dy="580" grid="1" gridSize="10" guides="1" tooltips="1" connect="1" arrows="1" fold="1" page="1" pageScale="1" pageWidth="827" pageHeight="1169" background="none" math="0" shadow="0">
      <root>
        <mxCell id="0" />
        <mxCell id="1" parent="0" />
        <mxCell id="3nH2F0Kgi0OkO7_tEUe0-11" value="" style="ellipse;whiteSpace=wrap;html=1;aspect=fixed;strokeWidth=2;" vertex="1" parent="1">
          <mxGeometry x="170" y="210" width="20" height="20" as="geometry" />
        </mxCell>
        <mxCell id="3nH2F0Kgi0OkO7_tEUe0-12" value="" style="ellipse;whiteSpace=wrap;html=1;aspect=fixed;strokeWidth=2;fillColor=#000000;" vertex="1" parent="1">
          <mxGeometry x="250" y="210" width="20" height="20" as="geometry" />
        </mxCell>
        <mxCell id="3nH2F0Kgi0OkO7_tEUe0-13" value="" style="ellipse;whiteSpace=wrap;html=1;aspect=fixed;strokeWidth=2;" vertex="1" parent="1">
          <mxGeometry x="330" y="210" width="20" height="20" as="geometry" />
        </mxCell>
        <mxCell id="3nH2F0Kgi0OkO7_tEUe0-22" value="" style="curved=1;endArrow=classic;html=1;rounded=0;exitX=1;exitY=0;exitDx=0;exitDy=0;entryX=0;entryY=0;entryDx=0;entryDy=0;strokeWidth=2;" edge="1" parent="1" target="3nH2F0Kgi0OkO7_tEUe0-15">
          <mxGeometry width="50" height="50" relative="1" as="geometry">
            <mxPoint x="634.1421356237311" y="84.85786437626894" as="sourcePoint" />
            <mxPoint x="690" y="85" as="targetPoint" />
            <Array as="points">
              <mxPoint x="660" y="39" />
            </Array>
          </mxGeometry>
        </mxCell>
        <mxCell id="3nH2F0Kgi0OkO7_tEUe0-25" value="" style="curved=1;endArrow=classic;html=1;rounded=0;exitX=1;exitY=0;exitDx=0;exitDy=0;entryX=0;entryY=0;entryDx=0;entryDy=0;strokeWidth=2;" edge="1" parent="1" source="3nH2F0Kgi0OkO7_tEUe0-11" target="3nH2F0Kgi0OkO7_tEUe0-13">
          <mxGeometry width="50" height="50" relative="1" as="geometry">
            <mxPoint x="254" y="-4" as="sourcePoint" />
            <mxPoint x="306" y="-4" as="targetPoint" />
            <Array as="points">
              <mxPoint x="260" y="120" />
            </Array>
          </mxGeometry>
        </mxCell>
        <mxCell id="3nH2F0Kgi0OkO7_tEUe0-27" value="" style="curved=1;endArrow=classic;html=1;rounded=0;exitX=1;exitY=0;exitDx=0;exitDy=0;entryX=0;entryY=0;entryDx=0;entryDy=0;strokeWidth=2;" edge="1" parent="1" source="3nH2F0Kgi0OkO7_tEUe0-11" target="3nH2F0Kgi0OkO7_tEUe0-12">
          <mxGeometry width="50" height="50" relative="1" as="geometry">
            <mxPoint x="204" y="106" as="sourcePoint" />
            <mxPoint x="256" y="106" as="targetPoint" />
            <Array as="points">
              <mxPoint x="220" y="180" />
            </Array>
          </mxGeometry>
        </mxCell>
        <mxCell id="3nH2F0Kgi0OkO7_tEUe0-28" value="" style="curved=1;endArrow=classic;html=1;rounded=0;exitX=1;exitY=0;exitDx=0;exitDy=0;entryX=0;entryY=0;entryDx=0;entryDy=0;strokeWidth=2;" edge="1" parent="1" source="3nH2F0Kgi0OkO7_tEUe0-12" target="3nH2F0Kgi0OkO7_tEUe0-13">
          <mxGeometry width="50" height="50" relative="1" as="geometry">
            <mxPoint x="204" y="226" as="sourcePoint" />
            <mxPoint x="256" y="226" as="targetPoint" />
            <Array as="points">
              <mxPoint x="300" y="180" />
            </Array>
          </mxGeometry>
        </mxCell>
        <mxCell id="3nH2F0Kgi0OkO7_tEUe0-29" value="" style="curved=1;endArrow=classic;html=1;rounded=0;exitX=1;exitY=0;exitDx=0;exitDy=0;entryX=0;entryY=0;entryDx=0;entryDy=0;strokeWidth=2;" edge="1" parent="1" target="3nH2F0Kgi0OkO7_tEUe0-3">
          <mxGeometry width="50" height="50" relative="1" as="geometry">
            <mxPoint x="434.14213562373106" y="85.85786437626894" as="sourcePoint" />
            <mxPoint x="256" y="96" as="targetPoint" />
            <Array as="points">
              <mxPoint x="460" y="40" />
            </Array>
          </mxGeometry>
        </mxCell>
        <mxCell id="3nH2F0Kgi0OkO7_tEUe0-38" value="" style="ellipse;whiteSpace=wrap;html=1;aspect=fixed;strokeWidth=2;fillColor=#000000;" vertex="1" parent="1">
          <mxGeometry x="410" y="210" width="20" height="20" as="geometry" />
        </mxCell>
        <mxCell id="3nH2F0Kgi0OkO7_tEUe0-41" value="" style="curved=1;endArrow=classic;html=1;rounded=0;exitX=1;exitY=0;exitDx=0;exitDy=0;entryX=0;entryY=0;entryDx=0;entryDy=0;strokeWidth=2;" edge="1" parent="1" target="3nH2F0Kgi0OkO7_tEUe0-38">
          <mxGeometry width="50" height="50" relative="1" as="geometry">
            <mxPoint x="347.07106781186553" y="212.92893218813458" as="sourcePoint" />
            <mxPoint x="416" y="106" as="targetPoint" />
            <Array as="points">
              <mxPoint x="380" y="180" />
            </Array>
          </mxGeometry>
        </mxCell>
        <mxCell id="3nH2F0Kgi0OkO7_tEUe0-42" value="" style="curved=1;endArrow=classic;html=1;rounded=0;exitX=1;exitY=0;exitDx=0;exitDy=0;entryX=0;entryY=0;entryDx=0;entryDy=0;strokeWidth=2;" edge="1" parent="1" source="3nH2F0Kgi0OkO7_tEUe0-38">
          <mxGeometry width="50" height="50" relative="1" as="geometry">
            <mxPoint x="364" y="226" as="sourcePoint" />
            <mxPoint x="492.9289321881113" y="212.9289321881114" as="targetPoint" />
            <Array as="points">
              <mxPoint x="460" y="180" />
            </Array>
          </mxGeometry>
        </mxCell>
        <mxCell id="3nH2F0Kgi0OkO7_tEUe0-43" value="" style="ellipse;whiteSpace=wrap;html=1;aspect=fixed;strokeWidth=2;fillColor=#000000;" vertex="1" parent="1">
          <mxGeometry x="490" y="210" width="20" height="20" as="geometry" />
        </mxCell>
        <mxCell id="3nH2F0Kgi0OkO7_tEUe0-44" value="" style="ellipse;whiteSpace=wrap;html=1;aspect=fixed;strokeWidth=2;" vertex="1" parent="1">
          <mxGeometry x="570" y="210" width="20" height="20" as="geometry" />
        </mxCell>
        <mxCell id="3nH2F0Kgi0OkO7_tEUe0-45" value="" style="curved=1;endArrow=classic;html=1;rounded=0;exitX=1;exitY=0;exitDx=0;exitDy=0;entryX=0;entryY=0;entryDx=0;entryDy=0;strokeWidth=2;" edge="1" parent="1" source="3nH2F0Kgi0OkO7_tEUe0-43" target="3nH2F0Kgi0OkO7_tEUe0-44">
          <mxGeometry width="50" height="50" relative="1" as="geometry">
            <mxPoint x="437" y="223" as="sourcePoint" />
            <mxPoint x="502.9289321881113" y="222.9289321881114" as="targetPoint" />
            <Array as="points">
              <mxPoint x="540" y="180" />
            </Array>
          </mxGeometry>
        </mxCell>
        <mxCell id="3nH2F0Kgi0OkO7_tEUe0-46" value="" style="curved=1;endArrow=classic;html=1;rounded=0;entryX=0;entryY=0;entryDx=0;entryDy=0;strokeWidth=2;exitX=1;exitY=0;exitDx=0;exitDy=0;" edge="1" parent="1" source="3nH2F0Kgi0OkO7_tEUe0-38" target="3nH2F0Kgi0OkO7_tEUe0-44">
          <mxGeometry width="50" height="50" relative="1" as="geometry">
            <mxPoint x="430" y="210" as="sourcePoint" />
            <mxPoint x="570" y="193" as="targetPoint" />
            <Array as="points">
              <mxPoint x="500" y="120" />
            </Array>
          </mxGeometry>
        </mxCell>
        <mxCell id="3nH2F0Kgi0OkO7_tEUe0-47" value="" style="curved=1;endArrow=classic;html=1;rounded=0;entryX=0;entryY=0;entryDx=0;entryDy=0;strokeWidth=2;exitX=1;exitY=0;exitDx=0;exitDy=0;" edge="1" parent="1" source="3nH2F0Kgi0OkO7_tEUe0-13" target="3nH2F0Kgi0OkO7_tEUe0-44">
          <mxGeometry width="50" height="50" relative="1" as="geometry">
            <mxPoint x="390" y="143" as="sourcePoint" />
            <mxPoint x="536" y="143" as="targetPoint" />
            <Array as="points">
              <mxPoint x="460" y="80" />
            </Array>
          </mxGeometry>
        </mxCell>
      </root>
    </mxGraphModel>
  </diagram>
</mxfile>
